<svg xmlns="http://www.w3.org/2000/svg" viewBox="0 0 64 64" role="img" aria-label="Phishing Simulator">
  <defs>
    <linearGradient id="bg" x1="0" y1="0" x2="1" y2="1">
      <stop offset="0%" stop-color="#0f172a" />
      <stop offset="100%" stop-color="#1e293b" />
    </linearGradient>
    <linearGradient id="warn" x1="0" y1="0" x2="1" y2="1">
      <stop offset="0%" stop-color="#f59e0b" />
      <stop offset="100%" stop-color="#ef4444" />
    </linearGradient>
  </defs>
  <rect x="2" y="2" width="60" height="60" rx="14" fill="url(#bg)" />
  <path d="M32 10L50 18V30C50 41 42.5 50.5 32 54C21.5 50.5 14 41 14 30V18L32 10Z" fill="#e2e8f0" />
  <path d="M32 14L46 20V30C46 39 40 46.5 32 49.5C24 46.5 18 39 18 30V20L32 14Z" fill="#0f172a" />
  <path d="M19 36C25 28 39 26 45 34" fill="none" stroke="url(#warn)" stroke-width="4" stroke-linecap="round" />
  <circle cx="46.5" cy="34.5" r="4.5" fill="#ef4444" />
</svg>
